<?xml version="1.0" encoding="UTF-8" standalone="no"?>
<!-- Created with Inkscape (http://www.inkscape.org/) -->

<svg
   xmlns:dc="http://purl.org/dc/elements/1.1/"
   xmlns:cc="http://creativecommons.org/ns#"
   xmlns:rdf="http://www.w3.org/1999/02/22-rdf-syntax-ns#"
   xmlns:svg="http://www.w3.org/2000/svg"
   xmlns="http://www.w3.org/2000/svg"
   xmlns:sodipodi="http://sodipodi.sourceforge.net/DTD/sodipodi-0.dtd"
   xmlns:inkscape="http://www.inkscape.org/namespaces/inkscape"
   width="744.09448819"
   height="1052.3622047"
   id="svg2"
   version="1.1"
   inkscape:version="0.48.2 r9819"
   sodipodi:docname="Settings Button.svg">
  <defs
     id="defs4" />
  <sodipodi:namedview
     id="base"
     pagecolor="#ffffff"
     bordercolor="#666666"
     borderopacity="1.0"
     inkscape:pageopacity="0.0"
     inkscape:pageshadow="2"
     inkscape:zoom="0.62240929"
     inkscape:cx="372.04724"
     inkscape:cy="526.18109"
     inkscape:document-units="px"
     inkscape:current-layer="layer1"
     showgrid="false"
     inkscape:window-width="1113"
     inkscape:window-height="857"
     inkscape:window-x="70"
     inkscape:window-y="8"
     inkscape:window-maximized="0" />
  <metadata
     id="metadata7">
    <rdf:RDF>
      <cc:Work
         rdf:about="">
        <dc:format>image/svg+xml</dc:format>
        <dc:type
           rdf:resource="http://purl.org/dc/dcmitype/StillImage" />
        <dc:title></dc:title>
      </cc:Work>
    </rdf:RDF>
  </metadata>
  <g
     inkscape:label="Layer 1"
     inkscape:groupmode="layer"
     id="layer1">
    <path
       style="fill:#008080;fill-opacity:1"
       d="m 132.19866,118.99787 c -3.76403,0.19655 -7.41106,0.81025 -10.90978,1.79381 l -3.69951,14.86027 -14.25066,-5.55136 c -2.8815,2.33918 -5.47712,4.99654 -7.776517,7.91163 l 5.738017,14.16163 -14.79804,3.90861 c -0.935502,3.51564 -1.497271,7.17678 -1.642129,10.95166 l 12.967158,8.10046 -9.6829,11.83912 c 1.341252,3.48616 3.048112,6.77795 5.096263,9.83761 l 15.251038,-1.07628 -0.86825,15.2568 c 3.07943,2.00184 6.39333,3.67347 9.89052,4.96601 l 11.72141,-9.83761 8.28614,12.87764 c 3.76412,-0.19788 7.41118,-0.8089 10.90978,-1.79381 l 3.69951,-14.87915 14.25066,5.55136 c 2.8679,-2.33065 5.4669,-4.99115 7.75764,-7.89275 l -5.71914,-14.18051 14.79804,-3.88973 c 0.93373,-3.50942 1.49617,-7.18385 1.64213,-10.95166 l -12.96716,-8.10046 9.66403,-11.83912 c -1.33937,-3.48079 -3.05208,-6.78196 -5.09627,-9.83761 l -15.25103,1.07628 0.86825,-15.27568 c -3.07982,-2.0021 -6.39284,-3.6734 -9.89053,-4.96601 l -11.7214,9.85649 -8.26727,-12.87764 z m 2.66138,21.60121 c 15.66899,0 28.3692,12.72388 28.3692,28.39879 0,15.67491 -12.70021,28.37991 -28.3692,28.37991 -15.66899,0 -28.36919,-12.705 -28.36919,-28.37991 0,-15.67491 12.7002,-28.39879 28.36919,-28.39879 z"
       id="path2985"
       inkscape:connector-curvature="0" />
    <rect
       style="fill:#ff0000;fill-opacity:1"
       id="rect3057"
       width="100"
       height="100"
       x="146.97975"
       y="353.84427"
       ry="15"
       rx="15" />
  </g>
</svg>
